/* XPM */
static char *oleo_icon[] = {
/* width height num_colors chars_per_pixel */
"    48    48      6            2",
/* colors */
".B c #000000",	/* black */
".- c #AAAAAA",	/* grey */
".r c #ff0000",	/* red */
".b c #1412c0",	/* blue */
".y c #ecee8c",	/* yellow */
".p c #4c224c",	/* purple */
/* pixels */
".-.-.-.-.-.-.-.-.-.-.-.-.-.-.-.-.-.-.-.-.-.-.-.-.-.-.-.-.-.-.-.-.-.-.-.-.-.-.-.-.-.-.-.-.-.-.-.-",
".-.-.-.-.-.-.-.-.-.-.-.-.-.-.-.-.-.-.-.-.-.-.-.-.-.-.-.-.-.-.-.-.-.-.-.-.-.-.-.-.-.-.-.-.-.-.-.-",
".-.-.-.-.-.-.-.-.-.-.-.-.-.-.-.-.-.-.-.-.-.-.b.-.-.-.-.-.-.-.-.-.-.-.-.-.-.-.-.-.-.-.-.-.-.-.-.-",
".-.-.-.-.-.B.-.-.-.B.-.-.-.-.-.-.-.-.-.-.-.-.b.-.-.-.-.-.-.-.-.-.-.-.-.-.-.-.-.-.-.-.-.-.-.-.-.-",
".-.-.-.-.B.B.-.-.B.-.B.-.-.-.-.-.-.-.-.-.-.-.b.-.-.y.-.-.-.-.-.-.-.-.-.-.-.-.-.-.-.-.-.-.-.-.-.-",
".-.-.-.-.-.B.-.-.-.-.B.-.-.-.-.-.-.-.-.-.-.-.b.-.-.y.-.-.-.-.-.-.-.-.-.-.-.-.-.-.-.-.-.-.-.-.-.-",
".-.-.-.-.-.B.-.-.-.B.-.-.-.-.-.-.-.-.-.-.-.-.b.-.-.y.-.-.-.-.-.-.-.-.-.-.-.-.-.-.-.-.-.-.-.-.-.-",
".-.-.-.-.B.B.B.-.B.B.B.-.-.-.-.-.-.-.-.-.-.-.b.-.-.y.-.-.-.-.-.-.-.-.-.-.-.-.-.-.-.-.-.-.-.-.p.-",
".-.-.-.-.-.-.-.-.-.-.-.-.-.-.-.-.-.-.-.-.-.-.b.-.-.y.-.-.-.-.-.-.-.-.-.-.-.-.-.-.-.-.-.-.-.-.p.-",
".-.-.-.-.-.-.-.-.-.-.-.-.-.-.-.-.-.-.-.-.-.-.b.-.-.y.-.-.-.-.-.-.-.-.-.-.-.-.-.-.-.-.-.-.-.p.-.-",
".-.-.-.-.-.-.-.-.-.-.-.-.-.-.-.-.-.-.-.-.-.-.b.-.-.-.y.-.-.-.-.-.-.-.-.-.-.-.-.-.-.-.-.-.p.-.-.-",
".-.-.-.-.-.-.-.-.-.-.-.-.-.-.-.-.-.-.-.-.B.-.b.-.-.-.-.y.-.-.-.-.-.-.p.p.-.-.-.-.-.-.-.p.-.-.-.-",
".-.-.-.-.B.B.B.-.B.-.-.B.-.B.B.-.B.-.-.B.-.-.b.-.-.-.-.y.y.-.-.-.-.p.-.-.p.-.-.-.-.-.-.p.-.-.-.-",
".-.-.-.B.-.-.-.-.B.-.-.B.-.B.-.B.-.B.-.B.-.-.b.-.-.-.-.-.y.-.-.-.p.-.-.-.p.-.-.-.-.p.p.-.-.-.-.-",
".-.-.-.B.B.B.B.-.B.-.-.B.-.B.-.B.-.B.-.B.-.-.b.-.-.-.-.-.y.-.-.-.p.-.-.-.-.p.-.-.p.-.-.-.-.-.-.-",
".-.-.-.-.-.-.B.-.B.-.-.B.-.B.-.B.-.B.-.B.-.-.b.-.-.-.-.-.y.-.-.-.p.-.-.-.-.-.p.p.-.-.-.-.-.-.-.-",
".-.-.-.B.B.B.-.-.-.B.B.-.-.B.-.B.-.B.-.-.B.-.b.-.-.-.-.-.-.y.-.p.-.-.-.-.-.-.-.-.-.-.-.-.-.-.-.-",
".-.-.-.-.-.-.-.-.-.-.-.-.-.-.-.-.-.-.-.-.-.-.b.-.-.-.-.-.-.-.y.p.-.-.-.-.-.-.-.-.-.-.-.-.-.-.-.-",
".-.-.-.-.-.-.-.-.-.-.-.-.-.-.-.-.-.-.-.-.-.-.b.-.-.-.-.-.-.-.-.y.-.-.-.-.-.-.-.-.-.-.-.-.-.-.-.-",
".-.-.-.-.-.-.-.-.-.-.-.-.-.-.-.-.-.-.-.-.-.-.b.-.-.-.-.-.-.-.p.-.y.-.-.-.-.-.-.-.-.-.-.-.-.-.-.-",
".-.-.-.-.-.-.-.-.-.-.-.-.-.-.-.-.-.-.-.-.-.-.b.-.-.-.-.-.-.p.-.-.-.y.-.-.-.-.-.-.-.-.-.-.-.-.-.-",
".-.-.-.-.-.-.-.-.-.-.-.-.-.-.-.-.-.-.-.-.-.-.b.-.-.-.-.-.p.-.-.-.-.-.y.-.-.-.-.-.-.-.-.-.-.-.-.-",
".-.-.-.-.-.-.-.-.-.-.-.-.-.-.-.-.-.-.-.-.-.-.b.-.-.-.-.-.p.-.-.-.-.-.y.-.-.-.-.-.-.-.-.-.-.-.-.-",
".-.-.-.-.-.-.-.-.-.-.-.-.-.-.-.-.-.-.-.-.-.-.b.-.-.-.-.-.p.-.-.-.-.-.-.y.-.-.-.-.-.-.-.-.-.-.-.-",
".-.-.-.-.-.-.-.-.-.-.-.-.-.-.-.-.-.-.-.-.-.-.b.-.-.-.-.p.-.-.-.-.-.-.-.y.-.-.-.-.-.-.-.-.-.-.-.-",
".-.-.-.-.-.-.-.-.-.-.-.-.-.-.-.-.-.-.-.-.-.-.b.-.-.-.-.p.-.-.-.-.-.-.-.y.-.-.-.-.-.-.-.-.-.-.-.-",
".-.-.-.-.-.-.-.-.-.-.-.-.-.-.-.-.-.-.-.-.-.-.b.-.-.-.p.-.-.-.-.-.-.-.-.-.y.y.y.y.y.-.-.-.-.-.-.-",
".-.-.-.-.-.-.-.-.-.-.-.-.-.-.-.-.-.-.-.-.-.-.b.-.-.-.p.-.-.-.-.-.-.-.-.-.-.-.-.-.-.y.y.-.-.-.-.-",
".-.-.-.-.-.-.-.-.-.-.-.-.-.-.-.-.-.-.-.-.-.-.b.-.-.-.p.-.-.-.-.-.-.-.-.-.-.-.-.-.-.-.-.y.-.-.-.-",
".-.-.-.-.-.-.-.-.-.-.-.-.-.-.-.-.-.-.-.-.-.-.b.-.-.-.p.-.-.-.-.-.-.-.-.-.-.-.-.-.-.-.-.-.y.-.-.-",
".-.-.-.-.-.-.-.-.-.-.-.-.-.-.-.-.-.-.-.-.-.-.b.-.-.p.-.-.-.-.-.-.-.-.-.-.-.-.-.-.-.-.-.-.-.y.-.-",
".-.-.-.-.-.-.-.-.-.-.-.-.-.-.-.-.-.-.-.-.-.-.b.-.p.-.-.-.-.-.-.-.-.-.-.-.-.-.-.-.-.-.-.-.-.-.y.-",
".-.-.-.-.-.-.-.-.-.-.-.-.-.-.-.-.-.-.-.-.-.-.b.-.-.-.-.-.-.-.-.-.-.-.-.-.-.-.-.-.-.-.-.-.-.-.-.-",
".-.-.-.-.-.-.-.-.-.-.-.-.-.-.-.-.-.-.-.-.-.-.b.b.b.b.b.b.b.b.b.b.b.b.b.b.b.b.b.b.b.b.b.b.b.b.b.b",
".-.-.-.-.-.-.-.-.-.-.-.-.-.-.-.-.-.-.-.-.-.-.-.-.-.-.-.-.-.-.-.-.-.-.-.-.-.-.-.-.-.-.-.-.-.-.-.-",
".-.-.-.-.-.-.-.-.-.-.-.-.-.-.-.-.-.-.-.-.-.-.-.-.-.-.-.-.-.-.-.-.-.-.-.-.-.-.-.-.-.-.-.-.-.-.-.-",
".-.-.-.-.-.-.-.-.-.-.-.-.-.-.-.-.-.-.-.-.-.-.-.-.-.-.-.-.-.-.-.-.-.-.-.-.-.-.-.-.-.-.-.-.-.-.-.-",
".-.-.-.r.r.r.r.-.-.-.-.-.-.-.-.-.-.-.-.-.-.-.-.r.r.r.r.-.-.r.r.-.-.-.-.-.-.-.-.-.-.-.-.-.-.-.-.-",
".-.-.r.-.-.-.-.-.-.-.-.-.-.-.-.-.-.-.-.-.-.-.r.-.-.-.-.r.-.-.r.-.-.-.-.-.-.-.-.-.-.-.-.-.-.-.-.-",
".-.-.r.-.-.-.-.-.-.r.r.r.r.-.-.r.-.-.r.-.-.-.r.-.-.-.-.r.-.-.r.-.-.-.r.r.r.-.-.-.r.r.r.-.-.-.-.-",
".-.-.r.-.-.-.-.-.-.r.-.-.-.r.-.r.-.-.r.-.-.-.r.-.-.-.-.r.-.-.r.-.-.r.-.-.-.r.-.r.-.-.-.r.-.-.-.-",
".-.-.r.-.-.r.r.-.-.r.-.-.-.r.-.r.-.-.r.-.-.-.r.-.-.-.-.r.-.-.r.-.-.r.-.-.-.r.-.r.-.-.-.r.-.-.-.-",
".-.-.r.-.-.-.-.r.-.r.-.-.-.r.-.r.-.-.r.-.-.-.r.-.-.-.-.r.-.-.r.-.-.r.r.r.r.-.-.r.-.-.-.r.-.-.-.-",
".-.-.r.-.-.-.-.r.-.r.-.-.-.r.-.r.-.-.r.-.-.-.r.-.-.-.-.r.-.-.r.-.-.r.-.-.-.-.-.r.-.-.-.r.-.-.-.-",
".-.-.-.r.r.r.r.-.-.r.-.-.-.r.-.-.r.r.r.-.-.-.-.r.r.r.r.-.-.r.r.r.-.-.r.r.r.r.-.-.r.r.r.-.-.-.-.-",
".-.-.-.-.-.-.-.-.-.-.-.-.-.-.-.-.-.-.-.-.-.-.-.-.-.-.-.-.-.-.-.-.-.-.-.-.-.-.-.-.-.-.-.-.-.-.-.-",
".-.-.-.-.-.-.-.-.-.-.-.-.-.-.-.-.-.-.-.-.-.-.-.-.-.-.-.-.-.-.-.-.-.-.-.-.-.-.-.-.-.-.-.-.-.-.-.-",
".-.-.-.-.-.-.-.-.-.-.-.-.-.-.-.-.-.-.-.-.-.-.-.-.-.-.-.-.-.-.-.-.-.-.-.-.-.-.-.-.-.-.-.-.-.-.-.-"
};
